<svg xmlns="http://www.w3.org/2000/svg" xmlns:xlink="http://www.w3.org/1999/xlink" width="816" zoomAndPan="magnify" viewBox="0 0 612 197.999996" height="264" preserveAspectRatio="xMidYMid meet" version="1.0"><defs><clipPath id="7e580632f8"><path d="M 306 59.398438 L 385.5 59.398438 L 385.5 138.898438 L 306 138.898438 Z M 306 59.398438 " clip-rule="nonzero"/></clipPath></defs><g clip-path="url(#7e580632f8)"><path fill="#e3dcdc" d="M 310.570312 59.398438 C 308.050781 59.398438 306 61.453125 306 63.96875 L 306 134.027344 C 306 136.542969 308.050781 138.59375 310.570312 138.59375 L 380.625 138.59375 C 383.144531 138.59375 385.195312 136.542969 385.195312 134.027344 L 385.195312 63.96875 C 385.195312 61.453125 383.144531 59.398438 380.625 59.398438 Z M 310.570312 62.445312 L 380.625 62.445312 C 381.464844 62.445312 382.148438 63.128906 382.148438 63.96875 L 382.148438 134.027344 C 382.148438 134.863281 381.464844 135.550781 380.625 135.550781 L 310.570312 135.550781 C 309.730469 135.550781 309.046875 134.863281 309.046875 134.027344 L 309.046875 63.96875 C 309.046875 63.128906 309.730469 62.445312 310.570312 62.445312 Z M 318.183594 68.539062 C 316.507812 68.539062 315.136719 69.90625 315.136719 71.582031 L 315.136719 83.769531 C 315.136719 85.445312 316.507812 86.8125 318.183594 86.8125 L 330.367188 86.8125 C 332.046875 86.8125 333.414062 85.445312 333.414062 83.769531 L 333.414062 71.582031 C 333.414062 69.90625 332.046875 68.539062 330.367188 68.539062 Z M 337.984375 68.539062 C 337.136719 68.539062 336.460938 69.222656 336.460938 70.0625 L 336.460938 76.152344 C 336.460938 76.992188 337.136719 77.675781 337.984375 77.675781 L 342.550781 77.675781 L 342.550781 82.246094 C 342.550781 83.082031 343.230469 83.769531 344.074219 83.769531 C 344.917969 83.769531 345.597656 83.082031 345.597656 82.246094 L 345.597656 77.675781 L 351.691406 77.675781 L 351.691406 83.769531 L 347.121094 83.769531 C 346.277344 83.769531 345.597656 84.453125 345.597656 85.289062 L 345.597656 89.859375 L 337.984375 89.859375 C 337.136719 89.859375 336.460938 90.542969 336.460938 91.382812 L 336.460938 98.996094 L 333.414062 98.996094 L 333.414062 94.429688 C 333.414062 93.589844 332.734375 92.90625 331.890625 92.90625 L 325.796875 92.90625 C 324.953125 92.90625 324.277344 93.589844 324.277344 94.429688 L 324.277344 100.519531 C 324.277344 101.359375 324.953125 102.042969 325.796875 102.042969 L 336.460938 102.042969 L 336.460938 106.613281 C 336.460938 107.453125 337.136719 108.136719 337.984375 108.136719 L 345.597656 108.136719 L 345.597656 111.179688 L 341.027344 111.179688 C 340.183594 111.179688 339.503906 111.867188 339.503906 112.703125 L 339.503906 118.796875 C 339.503906 119.636719 340.183594 120.320312 341.027344 120.320312 L 347.121094 120.320312 C 347.964844 120.320312 348.644531 119.636719 348.644531 118.796875 L 348.644531 106.613281 C 348.644531 105.773438 347.964844 105.089844 347.121094 105.089844 L 339.503906 105.089844 L 339.503906 102.042969 L 351.691406 102.042969 L 351.691406 118.796875 C 351.691406 119.636719 352.367188 120.320312 353.210938 120.320312 L 359.304688 120.320312 C 360.148438 120.320312 360.828125 119.636719 360.828125 118.796875 L 360.828125 114.226562 L 366.917969 114.226562 L 366.917969 127.933594 C 366.917969 128.773438 367.597656 129.457031 368.441406 129.457031 L 374.535156 129.457031 C 375.378906 129.457031 376.058594 128.773438 376.058594 127.933594 L 376.058594 121.84375 C 376.058594 121.003906 375.378906 120.320312 374.535156 120.320312 L 369.964844 120.320312 L 369.964844 112.703125 C 369.964844 111.867188 369.289062 111.179688 368.441406 111.179688 L 360.828125 111.179688 L 360.828125 108.136719 L 374.535156 108.136719 C 375.378906 108.136719 376.058594 107.453125 376.058594 106.613281 L 376.058594 91.382812 C 376.058594 90.542969 375.378906 89.859375 374.535156 89.859375 L 365.394531 89.859375 C 364.550781 89.859375 363.875 90.542969 363.875 91.382812 C 363.875 92.222656 364.550781 92.90625 365.394531 92.90625 L 373.011719 92.90625 L 373.011719 98.996094 L 368.441406 98.996094 C 367.597656 98.996094 366.917969 99.683594 366.917969 100.519531 L 366.917969 105.089844 L 359.304688 105.089844 C 358.460938 105.089844 357.78125 105.773438 357.78125 106.613281 L 357.78125 111.179688 L 354.734375 111.179688 L 354.734375 102.042969 L 359.304688 102.042969 C 360.148438 102.042969 360.828125 101.359375 360.828125 100.519531 L 360.828125 94.429688 C 360.828125 93.589844 360.148438 92.90625 359.304688 92.90625 L 353.210938 92.90625 C 352.367188 92.90625 351.691406 93.589844 351.691406 94.429688 L 351.691406 98.996094 L 339.503906 98.996094 L 339.503906 92.90625 L 347.121094 92.90625 C 347.964844 92.90625 348.644531 92.222656 348.644531 91.382812 L 348.644531 86.8125 L 353.210938 86.8125 C 354.058594 86.8125 354.734375 86.128906 354.734375 85.289062 L 354.734375 76.152344 C 354.734375 75.3125 354.058594 74.628906 353.210938 74.628906 L 345.597656 74.628906 L 345.597656 70.0625 C 345.597656 69.222656 344.917969 68.539062 344.074219 68.539062 Z M 350.167969 68.539062 C 349.320312 68.539062 348.644531 69.222656 348.644531 70.0625 C 348.644531 70.898438 349.320312 71.582031 350.167969 71.582031 L 353.210938 71.582031 C 354.058594 71.582031 354.734375 70.898438 354.734375 70.0625 C 354.734375 69.222656 354.058594 68.539062 353.210938 68.539062 Z M 360.828125 68.539062 C 359.148438 68.539062 357.78125 69.90625 357.78125 71.582031 L 357.78125 83.769531 C 357.78125 85.445312 359.148438 86.8125 360.828125 86.8125 L 373.011719 86.8125 C 374.6875 86.8125 376.058594 85.445312 376.058594 83.769531 L 376.058594 71.582031 C 376.058594 69.90625 374.6875 68.539062 373.011719 68.539062 Z M 318.183594 71.582031 L 330.367188 71.582031 L 330.367188 83.769531 L 318.183594 83.769531 Z M 339.503906 71.582031 L 342.550781 71.582031 L 342.550781 74.628906 L 339.503906 74.628906 Z M 360.828125 71.582031 L 373.011719 71.582031 L 373.011719 83.769531 L 360.828125 83.769531 Z M 322.753906 74.628906 C 321.90625 74.628906 321.230469 75.3125 321.230469 76.152344 L 321.230469 79.199219 C 321.230469 80.039062 321.90625 80.722656 322.753906 80.722656 L 325.796875 80.722656 C 326.644531 80.722656 327.320312 80.039062 327.320312 79.199219 L 327.320312 76.152344 C 327.320312 75.3125 326.644531 74.628906 325.796875 74.628906 Z M 365.394531 74.628906 C 364.550781 74.628906 363.875 75.3125 363.875 76.152344 L 363.875 79.199219 C 363.875 80.039062 364.550781 80.722656 365.394531 80.722656 L 368.441406 80.722656 C 369.289062 80.722656 369.964844 80.039062 369.964844 79.199219 L 369.964844 76.152344 C 369.964844 75.3125 369.289062 74.628906 368.441406 74.628906 Z M 337.984375 80.722656 C 337.136719 80.722656 336.460938 81.40625 336.460938 82.246094 L 336.460938 85.289062 C 336.460938 86.128906 337.136719 86.8125 337.984375 86.8125 C 338.828125 86.8125 339.503906 86.128906 339.503906 85.289062 L 339.503906 82.246094 C 339.503906 81.40625 338.828125 80.722656 337.984375 80.722656 Z M 316.660156 89.859375 C 315.816406 89.859375 315.136719 90.542969 315.136719 91.382812 C 315.136719 92.222656 315.816406 92.90625 316.660156 92.90625 L 319.707031 92.90625 C 320.550781 92.90625 321.230469 92.222656 321.230469 91.382812 C 321.230469 90.542969 320.550781 89.859375 319.707031 89.859375 Z M 327.320312 95.953125 L 330.367188 95.953125 L 330.367188 98.996094 L 327.320312 98.996094 Z M 354.734375 95.953125 L 357.78125 95.953125 L 357.78125 98.996094 L 354.734375 98.996094 Z M 316.660156 97.476562 C 315.816406 97.476562 315.136719 98.160156 315.136719 98.996094 C 315.136719 99.835938 315.816406 100.519531 316.660156 100.519531 L 319.707031 100.519531 C 320.550781 100.519531 321.230469 99.835938 321.230469 98.996094 C 321.230469 98.160156 320.550781 97.476562 319.707031 97.476562 Z M 369.964844 102.042969 L 373.011719 102.042969 L 373.011719 105.089844 L 369.964844 105.089844 Z M 316.660156 105.089844 C 315.816406 105.089844 315.136719 105.773438 315.136719 106.613281 C 315.136719 107.453125 315.816406 108.136719 316.660156 108.136719 L 319.707031 108.136719 C 320.550781 108.136719 321.230469 107.453125 321.230469 106.613281 C 321.230469 105.773438 320.550781 105.089844 319.707031 105.089844 Z M 325.796875 105.089844 C 324.953125 105.089844 324.277344 105.773438 324.277344 106.613281 C 324.277344 107.453125 324.953125 108.136719 325.796875 108.136719 L 331.890625 108.136719 C 332.734375 108.136719 333.414062 107.453125 333.414062 106.613281 C 333.414062 105.773438 332.734375 105.089844 331.890625 105.089844 Z M 318.183594 111.179688 C 316.507812 111.179688 315.136719 112.550781 315.136719 114.226562 L 315.136719 126.410156 C 315.136719 128.089844 316.507812 129.457031 318.183594 129.457031 L 330.367188 129.457031 C 332.046875 129.457031 333.414062 128.089844 333.414062 126.410156 L 333.414062 114.226562 C 333.414062 112.550781 332.046875 111.179688 330.367188 111.179688 Z M 374.535156 111.179688 C 373.691406 111.179688 373.011719 111.867188 373.011719 112.703125 L 373.011719 115.75 C 373.011719 116.589844 373.691406 117.273438 374.535156 117.273438 C 375.378906 117.273438 376.058594 116.589844 376.058594 115.75 L 376.058594 112.703125 C 376.058594 111.867188 375.378906 111.179688 374.535156 111.179688 Z M 318.183594 114.226562 L 330.367188 114.226562 L 330.367188 126.410156 L 318.183594 126.410156 Z M 342.550781 114.226562 L 345.597656 114.226562 L 345.597656 117.273438 L 342.550781 117.273438 Z M 354.734375 114.226562 L 357.78125 114.226562 L 357.78125 117.273438 L 354.734375 117.273438 Z M 322.753906 117.273438 C 321.90625 117.273438 321.230469 117.957031 321.230469 118.796875 L 321.230469 121.84375 C 321.230469 122.679688 321.90625 123.367188 322.753906 123.367188 L 325.796875 123.367188 C 326.644531 123.367188 327.320312 122.679688 327.320312 121.84375 L 327.320312 118.796875 C 327.320312 117.957031 326.644531 117.273438 325.796875 117.273438 Z M 337.984375 123.367188 C 337.136719 123.367188 336.460938 124.050781 336.460938 124.886719 L 336.460938 127.933594 C 336.460938 128.773438 337.136719 129.457031 337.984375 129.457031 C 338.828125 129.457031 339.503906 128.773438 339.503906 127.933594 L 339.503906 124.886719 C 339.503906 124.050781 338.828125 123.367188 337.984375 123.367188 Z M 345.597656 123.367188 C 344.753906 123.367188 344.074219 124.050781 344.074219 124.886719 L 344.074219 127.933594 C 344.074219 128.773438 344.753906 129.457031 345.597656 129.457031 C 346.441406 129.457031 347.121094 128.773438 347.121094 127.933594 L 347.121094 124.886719 C 347.121094 124.050781 346.441406 123.367188 345.597656 123.367188 Z M 353.210938 123.367188 C 352.367188 123.367188 351.691406 124.050781 351.691406 124.886719 L 351.691406 127.933594 C 351.691406 128.773438 352.367188 129.457031 353.210938 129.457031 C 354.058594 129.457031 354.734375 128.773438 354.734375 127.933594 L 354.734375 124.886719 C 354.734375 124.050781 354.058594 123.367188 353.210938 123.367188 Z M 360.828125 123.367188 C 359.984375 123.367188 359.304688 124.050781 359.304688 124.886719 L 359.304688 127.933594 C 359.304688 128.773438 359.984375 129.457031 360.828125 129.457031 C 361.671875 129.457031 362.351562 128.773438 362.351562 127.933594 L 362.351562 124.886719 C 362.351562 124.050781 361.671875 123.367188 360.828125 123.367188 Z M 369.964844 123.367188 L 373.011719 123.367188 L 373.011719 126.410156 L 369.964844 126.410156 Z M 369.964844 123.367188 " fill-opacity="1" fill-rule="nonzero"/></g></svg>