<svg xmlns="http://www.w3.org/2000/svg" xmlns:xlink="http://www.w3.org/1999/xlink" width="816" zoomAndPan="magnify" viewBox="0 0 612 197.999996" height="264" preserveAspectRatio="xMidYMid meet" version="1.0"><defs><clipPath id="684b896abb"><path d="M 209.921875 59.398438 L 289.421875 59.398438 L 289.421875 138.898438 L 209.921875 138.898438 Z M 209.921875 59.398438 " clip-rule="nonzero"/></clipPath></defs><path fill="#000000" d="M 245.558594 114.226562 L 248.300781 114.226562 L 248.300781 116.96875 L 245.558594 116.96875 Z M 245.558594 114.226562 " fill-opacity="1" fill-rule="nonzero"/><path fill="#000000" d="M 215.40625 133.417969 L 234.59375 133.417969 L 234.59375 114.226562 L 215.40625 114.226562 Z M 218.144531 118.339844 C 218.144531 117.582031 218.761719 116.96875 219.515625 116.96875 L 230.480469 116.96875 C 231.238281 116.96875 231.851562 117.582031 231.851562 118.339844 L 231.851562 129.304688 C 231.851562 130.0625 231.238281 130.675781 230.480469 130.675781 L 219.515625 130.675781 C 218.761719 130.675781 218.144531 130.0625 218.144531 129.304688 Z M 218.144531 118.339844 " fill-opacity="1" fill-rule="nonzero"/><path fill="#000000" d="M 245.558594 130.675781 L 248.300781 130.675781 L 248.300781 133.417969 L 245.558594 133.417969 Z M 245.558594 130.675781 " fill-opacity="1" fill-rule="nonzero"/><path fill="#000000" d="M 229.113281 119.710938 L 220.886719 119.710938 L 220.886719 127.933594 L 229.113281 127.933594 Z M 226.371094 125.191406 L 223.628906 125.191406 L 223.628906 122.453125 L 226.371094 122.453125 Z M 226.371094 125.191406 " fill-opacity="1" fill-rule="nonzero"/><path fill="#000000" d="M 234.59375 64.882812 L 215.40625 64.882812 L 215.40625 84.074219 L 234.59375 84.074219 Z M 231.851562 79.960938 C 231.851562 80.71875 231.238281 81.332031 230.480469 81.332031 L 219.515625 81.332031 C 218.761719 81.332031 218.144531 80.71875 218.144531 79.960938 L 218.144531 68.996094 C 218.144531 68.238281 218.761719 67.625 219.515625 67.625 L 230.480469 67.625 C 231.238281 67.625 231.851562 68.238281 231.851562 68.996094 Z M 231.851562 79.960938 " fill-opacity="1" fill-rule="nonzero"/><path fill="#000000" d="M 218.144531 92.296875 L 220.886719 92.296875 L 220.886719 95.039062 L 218.144531 95.039062 Z M 218.144531 92.296875 " fill-opacity="1" fill-rule="nonzero"/><path fill="#000000" d="M 220.886719 78.589844 L 229.113281 78.589844 L 229.113281 70.367188 L 220.886719 70.367188 Z M 223.628906 73.105469 L 226.371094 73.105469 L 226.371094 75.847656 L 223.628906 75.847656 Z M 223.628906 73.105469 " fill-opacity="1" fill-rule="nonzero"/><path fill="#000000" d="M 264.75 84.074219 L 283.9375 84.074219 L 283.9375 64.882812 L 264.75 64.882812 Z M 267.492188 68.996094 C 267.492188 68.238281 268.105469 67.625 268.863281 67.625 L 279.828125 67.625 C 280.582031 67.625 281.199219 68.238281 281.199219 68.996094 L 281.199219 79.960938 C 281.199219 80.71875 280.582031 81.332031 279.828125 81.332031 L 268.863281 81.332031 C 268.105469 81.332031 267.492188 80.71875 267.492188 79.960938 Z M 267.492188 68.996094 " fill-opacity="1" fill-rule="nonzero"/><path fill="#000000" d="M 278.457031 70.367188 L 270.230469 70.367188 L 270.230469 78.589844 L 278.457031 78.589844 Z M 275.714844 75.847656 L 272.972656 75.847656 L 272.972656 73.105469 L 275.714844 73.105469 Z M 275.714844 75.847656 " fill-opacity="1" fill-rule="nonzero"/><g clip-path="url(#684b896abb)"><path fill="#000000" d="M 209.921875 59.398438 L 209.921875 138.898438 L 289.421875 138.898438 L 289.421875 59.398438 Z M 262.007812 89.554688 L 264.75 89.554688 L 264.75 92.296875 L 262.007812 92.296875 Z M 262.007812 95.039062 L 264.75 95.039062 L 264.75 97.78125 L 262.007812 97.78125 Z M 246.929688 97.78125 C 246.171875 97.78125 245.558594 97.164062 245.558594 96.410156 L 245.558594 89.554688 L 248.300781 89.554688 L 248.300781 95.039062 L 259.265625 95.039062 L 259.265625 97.78125 L 256.523438 97.78125 L 256.523438 103.261719 L 253.785156 103.261719 L 253.785156 97.78125 L 251.042969 97.78125 L 251.042969 108.746094 L 248.300781 108.746094 L 248.300781 97.78125 Z M 246.929688 99.148438 L 246.929688 108.746094 L 244.1875 108.746094 L 244.1875 99.148438 Z M 259.265625 89.554688 L 259.265625 92.296875 L 251.042969 92.296875 L 251.042969 89.554688 Z M 251.042969 86.8125 L 251.042969 84.074219 L 259.265625 84.074219 L 259.265625 86.8125 Z M 253.785156 106.003906 L 259.265625 106.003906 L 259.265625 100.519531 L 262.007812 100.519531 L 262.007812 107.375 C 262.007812 108.128906 261.394531 108.746094 260.636719 108.746094 L 253.785156 108.746094 Z M 249.671875 62.140625 L 259.265625 62.140625 L 259.265625 64.882812 L 249.671875 64.882812 Z M 244.1875 62.140625 L 246.929688 62.140625 L 246.929688 67.625 L 259.265625 67.625 L 259.265625 70.367188 L 256.523438 70.367188 L 256.523438 75.847656 L 253.785156 75.847656 L 253.785156 70.367188 L 245.558594 70.367188 C 244.804688 70.367188 244.1875 69.75 244.1875 68.996094 Z M 240.078125 78.589844 L 242.816406 78.589844 L 242.816406 81.332031 L 240.078125 81.332031 Z M 240.078125 84.074219 L 245.558594 84.074219 L 245.558594 75.847656 L 240.078125 75.847656 L 240.078125 73.105469 L 251.042969 73.105469 L 251.042969 75.847656 L 248.300781 75.847656 L 248.300781 78.589844 L 259.265625 78.589844 L 259.265625 81.332031 L 248.300781 81.332031 L 248.300781 85.441406 C 248.300781 86.199219 247.6875 86.8125 246.929688 86.8125 L 240.078125 86.8125 Z M 240.078125 89.554688 L 242.816406 89.554688 L 242.816406 97.78125 L 240.078125 97.78125 Z M 240.078125 100.519531 L 242.816406 100.519531 L 242.816406 107.375 C 242.816406 108.128906 242.203125 108.746094 241.449219 108.746094 L 227.742188 108.746094 C 226.984375 108.746094 226.371094 108.128906 226.371094 107.375 L 226.371094 100.519531 L 229.113281 100.519531 L 229.113281 106.003906 L 240.078125 106.003906 Z M 235.964844 92.296875 C 236.722656 92.296875 237.335938 92.910156 237.335938 93.667969 L 237.335938 103.261719 L 234.59375 103.261719 L 234.59375 95.039062 L 229.113281 95.039062 L 229.113281 97.78125 L 226.371094 97.78125 L 226.371094 89.554688 L 229.113281 89.554688 L 229.113281 92.296875 Z M 233.222656 96.410156 L 233.222656 104.632812 L 230.480469 104.632812 L 230.480469 96.410156 Z M 212.664062 63.511719 C 212.664062 62.753906 213.277344 62.140625 214.035156 62.140625 L 235.964844 62.140625 C 236.722656 62.140625 237.335938 62.753906 237.335938 63.511719 L 237.335938 85.441406 C 237.335938 86.199219 236.722656 86.8125 235.964844 86.8125 L 214.035156 86.8125 C 213.277344 86.8125 212.664062 86.199219 212.664062 85.441406 Z M 212.664062 106.003906 L 220.886719 106.003906 L 220.886719 97.78125 L 216.773438 97.78125 C 216.019531 97.78125 215.40625 97.164062 215.40625 96.410156 L 215.40625 92.296875 L 212.664062 92.296875 L 212.664062 89.554688 L 222.257812 89.554688 C 223.015625 89.554688 223.628906 90.167969 223.628906 90.925781 L 223.628906 107.375 C 223.628906 108.128906 223.015625 108.746094 222.257812 108.746094 L 212.664062 108.746094 Z M 237.335938 134.789062 C 237.335938 135.542969 236.722656 136.160156 235.964844 136.160156 L 214.035156 136.160156 C 213.277344 136.160156 212.664062 135.542969 212.664062 134.789062 L 212.664062 112.855469 C 212.664062 112.101562 213.277344 111.484375 214.035156 111.484375 L 235.964844 111.484375 C 236.722656 111.484375 237.335938 112.101562 237.335938 112.855469 Z M 251.042969 134.789062 C 251.042969 135.542969 250.429688 136.160156 249.671875 136.160156 L 240.078125 136.160156 L 240.078125 133.417969 L 242.816406 133.417969 L 242.816406 129.304688 C 242.816406 128.546875 243.433594 127.933594 244.1875 127.933594 L 248.300781 127.933594 L 248.300781 125.191406 L 240.078125 125.191406 L 240.078125 122.453125 L 248.300781 122.453125 L 248.300781 119.710938 L 244.1875 119.710938 C 243.433594 119.710938 242.816406 119.097656 242.816406 118.339844 L 242.816406 114.226562 L 240.078125 114.226562 L 240.078125 111.484375 L 249.671875 111.484375 C 250.429688 111.484375 251.042969 112.101562 251.042969 112.855469 L 251.042969 122.453125 L 259.265625 122.453125 L 259.265625 125.191406 L 251.042969 125.191406 Z M 264.75 130.675781 L 262.007812 130.675781 L 262.007812 136.160156 L 259.265625 136.160156 L 259.265625 130.675781 L 256.523438 130.675781 L 256.523438 136.160156 L 253.785156 136.160156 L 253.785156 129.304688 C 253.785156 128.546875 254.398438 127.933594 255.15625 127.933594 L 264.75 127.933594 Z M 264.75 125.191406 L 262.007812 125.191406 L 262.007812 116.96875 L 256.523438 116.96875 L 256.523438 119.710938 L 253.785156 119.710938 L 253.785156 111.484375 L 256.523438 111.484375 L 256.523438 114.226562 L 263.378906 114.226562 C 264.136719 114.226562 264.75 114.839844 264.75 115.597656 Z M 286.679688 136.160156 L 278.457031 136.160156 L 278.457031 133.417969 L 286.679688 133.417969 Z M 286.679688 130.675781 L 275.714844 130.675781 L 275.714844 134.789062 C 275.714844 135.542969 275.101562 136.160156 274.34375 136.160156 L 267.492188 136.160156 L 267.492188 133.417969 L 272.972656 133.417969 L 272.972656 125.191406 L 267.492188 125.191406 L 267.492188 122.453125 L 278.457031 122.453125 L 278.457031 125.191406 L 275.714844 125.191406 L 275.714844 127.933594 L 286.679688 127.933594 Z M 267.492188 130.675781 L 267.492188 127.933594 L 270.230469 127.933594 L 270.230469 130.675781 Z M 267.492188 119.710938 L 267.492188 111.484375 L 270.230469 111.484375 L 270.230469 119.710938 Z M 286.679688 119.710938 L 283.9375 119.710938 L 283.9375 125.191406 L 281.199219 125.191406 L 281.199219 119.710938 L 274.34375 119.710938 C 273.585938 119.710938 272.972656 119.097656 272.972656 118.339844 L 272.972656 111.484375 L 275.714844 111.484375 L 275.714844 116.96875 L 286.679688 116.96875 Z M 286.679688 114.226562 L 278.457031 114.226562 L 278.457031 111.484375 L 286.679688 111.484375 Z M 286.679688 97.78125 L 283.9375 97.78125 L 283.9375 103.261719 L 281.199219 103.261719 L 281.199219 97.78125 L 278.457031 97.78125 L 278.457031 101.890625 C 278.457031 102.648438 277.84375 103.261719 277.085938 103.261719 L 275.714844 103.261719 L 275.714844 106.003906 L 286.679688 106.003906 L 286.679688 108.746094 L 274.34375 108.746094 C 273.585938 108.746094 272.972656 108.128906 272.972656 107.375 L 272.972656 103.261719 L 270.230469 103.261719 L 270.230469 107.375 C 270.230469 108.128906 269.617188 108.746094 268.863281 108.746094 L 264.75 108.746094 L 264.75 106.003906 L 267.492188 106.003906 L 267.492188 103.261719 L 264.75 103.261719 L 264.75 100.519531 L 275.714844 100.519531 L 275.714844 97.78125 L 274.34375 97.78125 C 273.585938 97.78125 272.972656 97.164062 272.972656 96.410156 L 272.972656 89.554688 L 275.714844 89.554688 L 275.714844 95.039062 L 286.679688 95.039062 Z M 267.492188 97.78125 L 267.492188 89.554688 L 270.230469 89.554688 L 270.230469 97.78125 Z M 286.679688 92.296875 L 278.457031 92.296875 L 278.457031 89.554688 L 286.679688 89.554688 Z M 286.679688 85.441406 C 286.679688 86.199219 286.066406 86.8125 285.308594 86.8125 L 263.378906 86.8125 C 262.621094 86.8125 262.007812 86.199219 262.007812 85.441406 L 262.007812 63.511719 C 262.007812 62.753906 262.621094 62.140625 263.378906 62.140625 L 285.308594 62.140625 C 286.066406 62.140625 286.679688 62.753906 286.679688 63.511719 Z M 286.679688 85.441406 " fill-opacity="1" fill-rule="nonzero"/></g></svg>